<?xml version="1.0" standalone="no"?>
<!DOCTYPE svg PUBLIC "-//W3C//DTD SVG 20010904//EN"
 "http://www.w3.org/TR/2001/REC-SVG-20010904/DTD/svg10.dtd">
<svg version="1.0" xmlns="http://www.w3.org/2000/svg"
 width="260.000000pt" height="260.000000pt" viewBox="0 0 260.000000 260.000000"
 preserveAspectRatio="xMidYMid meet">
<metadata>
Created by potrace 1.11, written by Peter Selinger 2001-2013
</metadata>
<g transform="translate(0.000000,260.000000) scale(0.100000,-0.100000)"
fill="#000000" stroke="none">
<path d="M220 2572 c-71 -35 -147 -113 -185 -187 l-30 -60 0 -1015 0 -1015 30
-60 c38 -76 114 -152 190 -190 l60 -30 1015 0 1015 0 60 30 c76 38 152 114
190 190 l30 60 0 1015 0 1015 -30 60 c-38 75 -115 152 -187 188 l-57 27 -1023
0 -1023 -1 -55 -27z m1300 -427 c36 -9 111 -38 168 -66 88 -43 115 -62 196
-142 58 -57 109 -119 134 -162 53 -91 99 -230 107 -327 l7 -78 -401 0 -401 0
0 395 0 395 63 0 c34 0 91 -7 127 -15z m-320 -507 l0 -393 280 -280 c154 -154
280 -285 280 -292 0 -22 -115 -104 -215 -153 -134 -66 -228 -84 -390 -77 -131
5 -193 22 -320 84 -191 94 -344 280 -405 493 -43 153 -36 344 20 493 107 285
395 502 684 515 l66 3 0 -393z m992 -468 c-9 -144 -87 -336 -182 -444 l-49
-56 -263 263 c-145 144 -269 270 -277 280 -13 16 8 17 380 15 l394 -3 -3 -55z"/>
</g>
</svg>
